<?xml version="1.0" standalone="no"?>
<!DOCTYPE svg PUBLIC "-//W3C//DTD SVG 20010904//EN"
 "http://www.w3.org/TR/2001/REC-SVG-20010904/DTD/svg10.dtd">
<svg version="1.0" xmlns="http://www.w3.org/2000/svg"
 width="1320.000000pt" height="1320.000000pt" viewBox="0 0 1320.000000 1320.000000"
 preserveAspectRatio="xMidYMid meet">
<metadata>
Created by potrace 1.11, written by Peter Selinger 2001-2013
</metadata>
<g transform="translate(0.000000,1320.000000) scale(0.100000,-0.100000)"
fill="#000000" stroke="none">
<path d="M9138 10044 c-2 -1 -30 -5 -63 -8 -33 -4 -86 -11 -118 -17 -32 -5
-70 -12 -85 -14 -15 -2 -63 -13 -107 -25 -44 -11 -84 -22 -90 -23 -5 -1 -14
-5 -20 -9 -5 -3 -26 -9 -45 -14 -45 -10 -40 -9 -75 -23 -42 -17 -60 -22 -63
-21 -1 0 -15 -6 -30 -14 -15 -7 -76 -38 -137 -67 -60 -29 -112 -55 -115 -58
-3 -3 -21 -14 -40 -25 -37 -20 -241 -155 -250 -165 -3 -3 -21 -18 -40 -32 -19
-15 -45 -35 -56 -45 -12 -11 -46 -39 -75 -64 -70 -58 -280 -268 -344 -344 -28
-32 -54 -64 -60 -70 -72 -80 -265 -338 -265 -355 0 -5 -4 -11 -8 -13 -11 -4
-68 -88 -175 -260 -115 -183 -176 -292 -305 -541 -76 -147 -76 -148 -93 -125
-10 12 -16 25 -13 29 2 4 -3 12 -11 19 -8 7 -12 16 -9 21 3 5 1 9 -4 9 -5 0
-12 8 -15 18 -3 9 -24 49 -47 87 -22 39 -43 78 -46 88 -4 9 -10 17 -15 17 -5
0 -9 5 -9 11 0 16 -167 288 -284 464 -101 152 -302 427 -352 481 -5 6 -30 35
-55 64 -71 84 -168 188 -253 269 -43 42 -89 86 -101 98 -13 12 -26 19 -29 16
-3 -4 -6 -1 -6 4 0 6 -35 39 -77 73 -94 74 -105 82 -125 95 -9 6 -40 26 -69
46 -125 83 -255 153 -394 212 -55 24 -227 83 -265 92 -8 2 -46 11 -85 20 -38
9 -81 19 -95 21 -14 3 -51 9 -83 15 -31 5 -62 7 -67 4 -6 -3 -10 -3 -10 2 0
10 -100 15 -300 15 -208 0 -307 -10 -495 -48 -135 -28 -162 -34 -195 -47 -8
-3 -40 -13 -70 -22 -30 -9 -69 -23 -87 -31 -17 -8 -33 -14 -36 -14 -2 0 -22
-8 -43 -17 -22 -9 -41 -17 -44 -18 -17 -3 -196 -99 -198 -106 -2 -5 -9 -9 -15
-9 -22 0 -202 -125 -327 -228 -58 -48 -210 -200 -280 -280 -70 -80 -69 -80
-104 -127 -17 -22 -32 -42 -35 -45 -4 -3 -20 -25 -36 -50 -16 -25 -32 -47 -35
-50 -8 -7 -130 -200 -130 -205 0 -3 -20 -41 -44 -85 -25 -44 -42 -80 -39 -80
3 0 -2 -9 -13 -21 -10 -12 -17 -22 -15 -23 2 0 -5 -19 -16 -41 -60 -117 -192
-490 -210 -590 -3 -16 -9 -38 -14 -47 -5 -10 -7 -18 -5 -18 3 0 -1 -17 -8 -37
-7 -21 -12 -48 -11 -60 1 -13 -1 -23 -5 -23 -4 0 -7 -6 -7 -12 0 -7 -3 -26 -7
-43 -12 -61 -36 -197 -42 -243 -3 -20 -7 -50 -10 -67 -3 -16 -7 -48 -9 -70 -2
-22 -7 -65 -10 -96 -37 -318 -36 -830 2 -1114 2 -22 6 -51 8 -65 6 -51 17
-134 21 -154 2 -12 7 -37 10 -56 4 -19 9 -44 11 -55 2 -11 6 -33 9 -50 3 -16
7 -37 10 -45 5 -13 9 -33 18 -85 1 -5 4 -14 7 -20 6 -9 17 -48 24 -88 2 -10
16 -57 32 -105 15 -48 28 -89 28 -92 1 -3 5 -13 9 -22 4 -9 9 -22 10 -30 1 -7
10 -30 19 -52 9 -21 17 -41 17 -43 0 -3 7 -21 16 -41 9 -21 20 -46 24 -57 28
-71 185 -380 200 -395 8 -8 28 -41 46 -77 9 -18 22 -37 30 -44 8 -6 14 -17 14
-23 0 -6 9 -19 20 -29 11 -9 20 -23 20 -31 0 -8 3 -16 8 -18 4 -1 41 -48 82
-103 41 -55 82 -107 90 -115 8 -9 40 -45 70 -80 93 -108 247 -256 360 -347 19
-15 37 -30 40 -33 11 -12 148 -109 200 -142 30 -19 74 -46 97 -61 24 -15 43
-24 43 -21 0 4 8 0 18 -8 9 -8 32 -21 49 -29 18 -8 33 -17 33 -21 0 -5 6 -8
14 -8 12 0 47 -15 171 -71 41 -18 263 -88 291 -91 16 -2 31 -6 34 -9 7 -8 197
-40 325 -56 75 -8 473 -8 540 1 231 30 451 88 635 168 97 42 255 124 263 136
4 6 16 12 27 12 10 0 20 4 22 8 2 4 24 21 50 37 58 37 171 116 178 124 3 4 36
31 73 60 37 29 80 65 95 80 15 14 73 69 129 122 56 54 99 100 96 103 -4 3 -1
6 4 6 11 0 100 97 188 204 22 27 45 54 50 60 6 6 30 38 54 71 25 33 52 66 60
73 8 6 11 12 5 12 -5 0 -4 4 2 8 5 4 32 39 59 77 27 39 54 73 60 77 5 4 7 8 3
8 -5 0 -1 8 8 18 22 25 60 82 80 120 9 17 20 32 25 32 5 0 9 5 9 10 0 6 20 41
44 78 24 37 73 117 108 177 60 102 79 136 168 300 63 116 58 112 84 63 33 -61
50 -92 56 -98 7 -7 29 -43 37 -60 24 -54 371 -594 427 -665 9 -11 44 -58 78
-105 34 -47 67 -90 73 -96 5 -6 17 -22 25 -34 8 -12 22 -31 32 -41 9 -11 30
-37 47 -58 63 -77 97 -116 129 -149 17 -18 32 -35 32 -39 0 -10 261 -266 332
-326 37 -30 98 -77 135 -104 38 -26 70 -51 71 -55 2 -5 8 -8 14 -8 5 0 29 -13
53 -30 24 -17 48 -30 53 -30 6 0 12 -3 14 -7 2 -5 26 -19 53 -33 28 -14 61
-32 75 -41 14 -9 27 -17 30 -17 6 -1 59 -23 118 -48 73 -32 226 -83 234 -78 4
3 8 0 8 -5 0 -6 3 -10 8 -10 4 1 9 0 12 -1 3 -1 14 -3 25 -5 11 -1 49 -10 85
-18 36 -9 79 -18 95 -21 17 -3 42 -7 56 -10 15 -3 48 -8 75 -10 27 -3 49 -5
49 -6 0 -6 120 -10 275 -10 211 0 280 3 280 10 0 3 15 6 33 6 17 1 55 5 82 8
28 4 61 9 75 11 14 2 26 4 28 5 3 3 12 5 57 14 22 5 63 14 90 22 28 8 53 14
57 14 4 1 25 7 47 15 22 7 42 11 45 8 3 -4 6 -1 6 5 0 7 7 12 15 12 8 0 59 18
112 41 54 22 110 46 126 52 15 6 27 15 27 19 0 4 9 8 19 8 11 0 21 3 23 8 2 4
28 20 58 36 143 75 332 221 489 376 90 90 129 134 212 237 64 78 71 88 82 111
5 12 14 22 18 22 4 0 20 21 36 46 15 26 36 58 45 73 10 14 21 33 25 41 3 8 9
17 13 20 33 27 241 452 265 540 1 3 5 12 8 20 10 25 51 134 53 143 1 4 2 8 4
10 1 1 3 10 5 19 3 18 23 84 32 108 7 18 10 29 17 55 2 11 15 65 29 120 13 55
27 116 31 135 3 19 9 46 12 60 3 14 7 37 9 52 2 15 8 53 14 85 12 71 18 110
27 188 3 33 8 69 10 80 6 34 17 217 18 307 1 49 3 88 6 88 7 0 4 306 -5 455
-5 72 -9 151 -9 177 -1 27 -3 48 -6 48 -3 0 -6 8 -7 18 -3 55 -16 157 -27 217
-3 17 -8 47 -11 69 -4 21 -9 47 -11 57 -4 19 -9 40 -19 89 -18 84 -16 75 -49
195 -28 100 -90 292 -110 339 -70 164 -102 236 -118 264 -11 17 -16 32 -12 32
4 0 1 8 -7 18 -8 9 -25 40 -39 67 -14 28 -27 52 -30 55 -3 3 -11 16 -18 30
-15 30 -16 32 -125 198 -48 73 -96 143 -108 155 -11 12 -27 34 -35 49 -8 15
-20 31 -27 35 -7 4 -20 17 -28 29 -36 54 -115 140 -244 269 -142 142 -182 178
-290 260 -33 24 -64 48 -70 53 -27 21 -187 123 -202 129 -10 4 -20 9 -23 13
-8 11 -199 104 -275 134 -100 40 -235 86 -235 79 0 -3 -7 0 -15 7 -8 7 -15 10
-15 7 0 -3 -21 0 -47 8 -49 14 -84 22 -138 31 -16 3 -52 9 -80 15 -27 5 -75
12 -105 15 -59 6 -477 13 -482 8z m772 -1327 c14 -3 48 -8 75 -12 95 -12 269
-61 370 -104 101 -43 319 -170 345 -200 3 -4 23 -19 45 -36 63 -46 235 -222
303 -310 34 -44 67 -85 72 -92 6 -7 15 -24 22 -38 6 -14 15 -25 20 -25 4 0 8
-4 8 -9 0 -5 16 -35 35 -67 90 -149 186 -390 222 -554 7 -35 9 -43 16 -60 3
-8 5 -22 5 -30 0 -14 5 -46 16 -100 33 -165 40 -601 12 -740 -3 -14 -7 -43
-10 -65 -9 -77 -19 -125 -27 -131 -4 -2 -6 -11 -3 -18 7 -18 -64 -273 -96
-341 -33 -73 -54 -122 -56 -133 -1 -7 -7 -19 -14 -27 -6 -7 -23 -37 -39 -67
-29 -56 -70 -126 -83 -143 -5 -5 -38 -50 -74 -99 -65 -89 -129 -161 -213 -240
-24 -22 -54 -50 -65 -61 -59 -55 -192 -149 -292 -206 -87 -49 -265 -132 -299
-138 -5 -1 -44 -12 -85 -25 -42 -14 -93 -27 -115 -31 -22 -4 -47 -9 -55 -12
-8 -3 -25 -7 -38 -9 -12 -1 -55 -8 -95 -13 -39 -6 -108 -14 -152 -17 -44 -3
-91 -7 -105 -8 -14 -1 -35 2 -47 6 -12 4 -24 4 -27 0 -2 -4 -26 -7 -53 -5
-145 6 -248 13 -262 17 -9 3 -40 8 -70 11 -30 4 -61 8 -70 10 -9 2 -50 11 -91
19 -138 29 -354 100 -460 151 -19 10 -55 27 -80 38 -86 41 -246 140 -360 226
-132 99 -460 419 -460 450 0 6 -4 11 -9 11 -5 0 -49 53 -98 118 -48 64 -91
119 -95 120 -5 2 -8 9 -8 17 0 7 -7 19 -16 26 -9 7 -20 22 -25 34 -10 21 -31
57 -39 65 -13 13 -60 91 -60 100 0 5 -4 10 -9 10 -5 0 -11 8 -15 18 -5 17 -12
28 -49 84 -18 28 -18 61 1 80 7 7 12 18 12 24 0 7 20 53 45 102 25 49 45 94
45 99 0 6 6 16 14 22 8 7 17 24 21 39 4 15 10 29 13 32 4 3 48 86 97 185 50
99 93 182 96 185 4 3 21 34 39 70 18 36 39 73 48 83 8 9 11 17 7 17 -4 0 -2 8
6 18 13 16 26 37 56 92 54 97 143 243 228 370 41 63 75 118 75 122 0 4 4 8 8
8 4 0 15 12 24 28 31 52 181 247 263 343 107 123 246 259 335 327 19 15 37 30
40 34 12 15 235 158 247 158 7 0 13 3 13 8 0 6 66 41 90 47 3 1 31 13 62 27
31 15 97 38 145 53 48 15 99 30 113 34 14 5 33 7 43 5 9 -1 17 1 17 5 0 4 10
8 23 8 50 3 109 12 114 16 7 7 381 2 413 -6z m-5965 -118 c6 -4 29 -6 53 -5
23 1 42 -1 42 -4 0 -3 12 -6 28 -6 60 -3 138 -18 272 -51 14 -3 30 -7 35 -8
77 -18 270 -88 357 -130 36 -18 69 -31 72 -27 3 3 6 1 6 -5 0 -6 12 -16 28
-22 40 -15 120 -62 222 -131 235 -158 455 -365 650 -614 8 -10 27 -33 43 -51
15 -18 27 -38 27 -44 0 -6 4 -11 8 -11 4 0 16 -15 27 -32 10 -18 22 -35 25
-38 9 -7 77 -112 101 -157 7 -13 16 -23 21 -23 4 0 8 -6 8 -14 0 -7 8 -24 19
-37 10 -13 31 -48 46 -77 l28 -54 -29 -61 c-16 -34 -33 -65 -39 -69 -5 -4 -7
-8 -3 -8 8 0 -238 -497 -258 -520 -7 -8 -13 -18 -13 -23 -1 -8 -13 -31 -61
-117 -17 -30 -38 -71 -48 -90 -9 -19 -22 -40 -27 -46 -6 -6 -19 -30 -29 -53
-11 -22 -23 -41 -28 -41 -4 0 -8 -4 -8 -10 0 -11 -129 -232 -140 -240 -4 -3
-15 -21 -26 -40 -10 -19 -21 -37 -24 -40 -3 -3 -36 -52 -75 -110 -38 -58 -73
-106 -77 -108 -4 -2 -8 -10 -8 -18 0 -8 -3 -14 -7 -14 -5 0 -19 -17 -33 -38
-14 -20 -28 -39 -31 -42 -4 -3 -25 -29 -46 -58 -107 -142 -331 -372 -458 -470
-44 -35 -85 -67 -92 -72 -6 -5 -47 -31 -90 -57 -43 -27 -79 -51 -81 -55 -2 -5
-7 -8 -12 -8 -5 0 -50 -20 -102 -44 -85 -40 -222 -90 -277 -101 -13 -2 -30 -6
-39 -9 -33 -10 -105 -23 -192 -35 -106 -14 -391 -6 -486 14 -42 9 -99 18 -116
19 -10 0 -18 4 -18 8 0 4 -9 8 -21 8 -68 0 -335 115 -457 197 -36 23 -69 43
-73 43 -5 0 -9 5 -9 10 0 6 -4 10 -10 10 -5 0 -19 8 -29 18 -10 9 -36 31 -57
47 -38 30 -188 178 -234 232 -14 15 -47 57 -73 93 -26 36 -55 73 -63 83 -8 9
-14 20 -14 23 0 3 -8 18 -19 32 -72 102 -200 383 -226 497 -1 6 -4 17 -8 25
-6 18 -26 98 -31 125 -1 11 -6 27 -9 35 -3 8 -8 33 -11 55 -3 22 -8 54 -10 70
-22 139 -28 234 -29 400 -1 125 10 342 18 355 2 3 6 26 9 50 5 39 22 135 30
165 2 6 7 28 11 50 12 55 12 55 15 58 1 1 3 9 5 17 4 22 63 188 83 235 37 87
110 224 158 293 27 41 54 81 59 90 6 9 22 29 38 45 15 16 27 32 27 37 0 8 242
253 272 275 7 6 40 30 73 54 33 25 62 48 63 53 2 4 7 8 12 8 5 0 44 21 87 48
43 26 98 57 123 69 51 25 142 66 150 68 3 0 37 11 75 24 39 13 77 25 85 27 8
2 51 13 95 24 44 12 100 23 125 25 25 2 45 4 45 5 0 4 47 10 115 16 41 3 76 7
78 8 5 6 378 0 387 -5z"/>
</g>
</svg>
